<svg xmlns="http://www.w3.org/2000/svg" viewBox="125 415 805 190" preserveAspectRatio="xMidYMid meet">
  <svg x="195" y="423" width="693" height="180" preserveAspectRatio="none">
    <svg version="1.1" xmlns="http://www.w3.org/2000/svg" width="693" height="180" viewBox="-0.10 0.00 2048.20 532.00" preserveAspectRatio="none">
      <defs>
        <linearGradient id="lG1" gradientUnits="userSpaceOnUse" x1="366.784" y1="421.027" x2="492.091" y2="373.642">
          <stop offset="0" stop-color="rgba(216,185,114,1)"/>
          <stop offset="1" stop-color="rgba(255,239,161,1)"/>
        </linearGradient>
        <linearGradient id="lG2" gradientUnits="userSpaceOnUse" x1="336.1" y1="225.524" x2="401.743" y2="185.47">
          <stop offset="0" stop-color="rgba(234,197,110,1)"/>
          <stop offset="1" stop-color="rgba(255,248,178,1)"/>
        </linearGradient>
        <linearGradient id="lG3" gradientUnits="userSpaceOnUse" x1="242.901" y1="246.528" x2="327.224" y2="219.553">
          <stop offset="0" stop-color="rgba(219,167,68,1)"/>
          <stop offset="1" stop-color="rgba(250,230,161,1)"/>
        </linearGradient>
        <linearGradient id="lG4" gradientUnits="userSpaceOnUse" x1="159.275" y1="481.823" x2="353.223" y2="315.603">
          <stop offset="0" stop-color="rgba(195,154,61,1)"/>
          <stop offset="1" stop-color="rgba(223,190,110,1)"/>
        </linearGradient>
        <linearGradient id="lG5" gradientUnits="userSpaceOnUse" x1="150.902" y1="296.397" x2="592.26" y2="146.422">
          <stop offset="0" stop-color="rgba(234,196,111,1)"/>
          <stop offset="1" stop-color="rgba(253,233,160,1)"/>
        </linearGradient>
      </defs>
      <path fill="rgba(212,171,81,1)" d="M 175.127 366.668 C 175.953 366.921 176.3 367.403 176.988 368.022 C 176.974 376.184 165.85 376.949 159.63 389.49 C 160.909 396.022 163.199 399.615 165.05 405.822 L 162.45 407.63 C 158.67 406.563 157.708 406.297 155.181 403.13 C 143.625 388.655 165.324 374.081 175.127 366.668 z"/>
      <path fill="rgba(212,171,81,1)" d="M 184.16 394.502 C 188.636 395.464 190.83 398.949 191.17 403.161 C 188.673 410.639 182.617 410.718 175.936 410.929 C 172.812 409.903 171.268 409.528 168.582 407.518 C 168.144 408.426 181.98 396.931 184.16 394.502 z"/>
      <path fill="rgba(212,171,81,1)" d="M 194.443 329.749 C 197.513 330.555 199.54 333.407 201.734 335.835 C 198.949 340.059 197.621 341.8 194.198 345.521 C 189.794 344.022 188.123 342.648 187.383 338.041 C 188.318 334.188 191.354 332.275 194.443 329.749 z"/>
      <path fill="rgba(212,171,81,1)" d="M 241.227 266.704 L 244.309 268.203 L 244.965 270.404 C 243.909 273.373 240.279 275.537 237.614 277.521 L 235.915 277.533 L 234.963 276.073 C 235.855 272.591 238.867 269.505 241.227 266.704 z"/>
      <path fill="url(#lG5)" d="M 272.242 2.07515 L 394.431 2.02316 C 416.809 2.04372 442.02 2.60912 464.204 1.49223 C 474.07 10.2295 485.816 22.6599 495.285 32.193 C 513.949 50.6806 532.308 69.4724 550.356 88.5608 C 564.005 102.855 576.007 113.172 590.001 128.561 L 464.865 286.842 C 427.062 335.449 389.451 386.518 350.325 434.23 C 352.825 435.104 358.831 436.965 360.771 438.363 C 371.482 446.074 378.518 460.777 362.354 467.381 C 360.158 468.278 355.3 468.127 353.197 467.154 C 359.477 462.631 370.23 459.257 362.917 448.109 C 358.882 441.958 353.833 441.487 347.088 440.157 C 328.702 459.348 311.7 484.321 294.036 503.125 C 284.855 492.186 249.831 442.89 238.105 441.663 C 235.977 441.441 233.758 441.563 231.622 441.643 C 217.821 456.18 225.057 458.036 236.91 466.419 L 236.656 467.61 C 225.19 471.109 214.947 460.612 217.278 449.198 C 219.592 437.861 230.75 437.902 238.59 432.72 L 238.865 432.536 C 231.153 424.905 210.291 396.504 202.678 386.894 C 194.981 377.179 169.946 346.671 165.583 338.059 C 164.032 332.659 163.017 332.194 164.424 327.178 C 196.15 366.276 226.062 409.211 257.57 448.605 C 263.036 455.44 282.98 482.353 287.588 486.819 L 289.157 486.22 C 292.676 477.989 284.213 451.347 281.574 442.635 C 274.805 420.282 257.478 393.708 238.242 380.305 C 233.488 378.254 208.064 368.158 207.349 364.412 L 207.753 364.369 C 218.143 363.308 231.84 368.966 239.927 375.525 C 242.932 376.604 250.382 382.077 253.378 384.147 C 251.839 375.607 248.578 366.615 246.271 358.096 C 247.14 352.149 241.309 344.528 240.585 338.464 C 239.814 332.009 240.513 332.189 236.755 326.616 C 234.346 320.928 226.44 304.179 225.696 299.118 L 226.641 297.945 C 245.595 303.105 247.957 339.506 252.597 343.841 C 255.256 340.265 255.701 333.97 257.189 329.658 C 266.192 303.577 263.457 290.655 252.704 266.751 C 252.125 259.543 244.956 256.382 240.049 249.93 C 248.205 249.836 250.668 258.622 257.714 259.858 C 258.574 260.663 259.362 261.543 260.069 262.485 C 271.453 277.699 270.214 298.06 267.843 315.797 C 282.625 303.847 301.418 296.138 320.123 306.101 C 326.156 309.314 327.138 319.925 324.493 325.718 L 323.154 326.098 C 318.483 323.382 317.761 312.007 308.274 311.288 C 279.657 309.118 264.618 323.839 259.905 351.311 C 255.194 378.769 269.692 396.135 280.005 420.059 C 285.438 432.628 290.978 446.356 294.412 459.369 C 302.051 445.567 307.878 427.84 318.075 415.313 C 352.067 373.555 383.836 359.047 372.082 300.093 C 356.303 220.95 268.783 215.269 241.443 149.548 L 246.042 144.912 C 267.868 192.946 338.443 219.153 376.737 252.323 C 390.337 264.103 425.042 304.684 421.166 323.111 L 419.495 323.748 C 412.384 318.117 411.688 308.492 406.933 303.607 C 401.97 319.497 396.04 345.907 382.071 354.756 C 378.957 355.253 378.439 355.498 376.174 357.69 C 374.365 360.506 371.997 363.304 372.306 366.493 C 376.133 367.988 388.417 360.154 394.354 357.668 C 383.056 371.269 373.2 376.605 358.306 386.562 C 335.468 401.831 315.501 426.92 305.918 452.64 C 303.563 458.96 296.71 480.096 299.801 486.226 L 301.625 486.128 C 305.752 483.127 307.622 477.827 310.895 473.865 C 330.072 450.653 348.165 426.801 366.235 402.736 L 504.371 220.381 C 525.14 192.645 549.322 156.402 570.182 130.568 C 558.966 116.963 528.766 88.5895 515.286 75.0681 C 499.333 59.0667 474.848 32.5274 458.764 19.0404 L 275.355 19.1102 C 274.886 14.3059 273.214 6.99323 272.242 2.07515 z M 373.475 274.885 C 382.901 285.823 384.499 317.957 383.408 331.306 C 383.977 331.654 384.404 331.916 384.688 332.09 C 389.664 329.797 389.561 318.791 392.236 313.502 C 392.399 312.892 392.582 312.286 392.784 311.687 C 395.164 304.663 397.821 302.074 404.262 298.903 C 400.28 287.365 384.841 270.958 376.168 262.641 C 372.112 261.183 371.132 259.944 367.946 261.202 L 367.169 263.237 C 369.299 267.105 371.401 270.988 373.475 274.885 z"/>
      <path fill="rgba(249,225,148,1)" d="M 392.236 313.502 C 392.399 312.892 392.582 312.286 392.784 311.687 C 395.164 304.663 397.821 302.074 404.262 298.903 L 406.933 303.607 C 401.97 319.497 396.04 345.907 382.071 354.756 C 380.899 349.919 391.567 324.475 392.236 313.502 z"/>
      <path fill="rgba(212,171,81,1)" d="M 238.865 432.536 L 240.483 434.002 C 237.945 440.216 217.21 435.348 219.526 456.864 L 220.544 457.55 C 222.572 451.675 223.468 440.222 231.622 441.643 C 217.821 456.18 225.057 458.036 236.91 466.419 L 236.656 467.61 C 225.19 471.109 214.947 460.612 217.278 449.198 C 219.592 437.861 230.75 437.902 238.59 432.72 L 238.865 432.536 z"/>
      <path fill="rgba(0,25,53,1)" d="M 373.475 274.885 C 382.901 285.823 384.499 317.957 383.408 331.306 C 383.977 331.654 384.404 331.916 384.688 332.09 C 389.664 329.797 389.561 318.791 392.236 313.502 C 391.567 324.475 380.899 349.919 382.071 354.756 C 378.957 355.253 378.439 355.498 376.174 357.69 C 384.949 323.739 384.486 307.782 373.475 274.885 z"/>
      <path fill="rgba(212,171,81,1)" d="M 238.242 380.305 C 233.488 378.254 208.064 368.158 207.349 364.412 L 207.753 364.369 C 218.143 363.308 231.84 368.966 239.927 375.525 L 239.614 375.475 C 231.42 374.088 227.389 367.819 221.116 369.906 C 226.242 373.018 236.247 375.757 238.242 380.305 z"/>
      <path fill="rgba(0,2,10,1)" d="M 357.502 248.765 C 364.468 252.776 370.547 256.882 376.168 262.641 C 372.112 261.183 371.132 259.944 367.946 261.202 L 367.169 263.237 C 366.366 262.694 358.624 250.494 357.502 248.765 z"/>
      <path fill="url(#lG4)" d="M 276.081 228.521 C 277.816 229.909 278.679 230.079 279.192 231.825 C 277.605 231.899 277.07 231.933 275.434 231.659 C 280.742 234.932 284.186 233.724 287.052 238.227 C 287.499 242.42 286.979 243.802 285.835 247.884 L 285.056 247.981 C 277.943 247.01 245.975 234.697 246.938 249.6 C 250.975 252.432 255.069 255.574 257.714 259.858 C 250.668 258.622 248.205 249.836 240.049 249.93 C 244.956 256.382 252.125 259.543 252.704 266.751 C 243.979 257.303 236.816 248.728 222.647 248.147 C 205.972 247.464 186.603 260.455 174.728 271.231 C 149.379 294.233 137.165 330.609 136.054 364.22 C 134.757 403.404 150.409 441.854 177.037 470.58 C 204.193 499.876 244.71 515.657 284.224 517.045 C 311.94 518.019 342.612 511.421 366.874 497.791 C 368.958 496.62 389.31 483.655 387.186 484.508 L 387.613 484.677 C 388.872 485.169 389.394 485.441 390.78 485.297 C 395.155 491.485 391.684 491.333 394.271 496.561 C 376.445 510.157 353.037 520.062 331.654 526.712 C 323.614 529.213 315.892 527.675 307.697 532 L 254.302 532 L 253.902 531.737 C 248.014 527.814 237.214 527.688 230.213 525.637 C 195.944 515.594 164.87 495.395 143.926 466.277 C 120.519 433.736 109.831 390.585 116.383 351.019 C 127.326 284.933 176.597 237.603 243.243 230.125 C 249.366 229.438 272.787 230.957 275.905 228.657 C 275.965 228.613 276.023 228.567 276.081 228.521 z"/>
      <path fill="rgba(38,57,66,1)" d="M 246.938 249.6 C 243.934 248.729 237.304 245.922 235.172 243.646 L 235.767 242.226 C 247.978 238.207 273.965 242.215 285.056 247.981 C 277.943 247.01 245.975 234.697 246.938 249.6 z"/>
      <path fill="rgba(212,171,81,1)" d="M 125.675 0 L 464.058 0 L 464.204 1.49223 C 442.02 2.60912 416.809 2.04372 394.431 2.02316 L 272.242 2.07515 C 273.214 6.99323 274.886 14.3059 275.355 19.1102 C 226.733 19.107 175.979 18.6204 127.527 19.2556 C 98.313 48.4465 68.451 77.6371 40.267 107.769 C 35.2823 113.098 23.7537 124.088 19.7989 129.046 C 27.6264 142.385 45.989 166.473 55.5486 179.356 L 107.419 249.309 C 111.846 255.18 133.586 280.413 132.759 286.14 L 131.302 288.916 C 126.823 289.398 124.113 284.404 121.561 280.997 C 116.138 273.758 110.561 266.724 104.927 259.65 L 29.6116 166.081 C 23.9922 159.061 4.99939 133.249 0 129.054 L 0 127.94 C 2.53305 125.514 5.28757 122.952 7.66056 120.396 C 35.9139 89.9689 65.7035 61.1145 94.196 30.8905 C 103.25 21.2867 115.31 7.67907 125.675 0 z"/>
      <path fill="url(#lG3)" d="M 223.693 123.342 C 228.789 118.065 233.697 87.5172 245.032 82.422 L 246.722 83.2825 C 249.108 90.7362 235.148 104.429 242.07 126.346 C 242.879 130.261 244.969 141.661 246.042 144.912 L 241.443 149.548 C 237.141 140.49 235.819 124.375 231.618 120.945 C 229.383 123.859 228.879 141.758 229.376 145.723 C 233.028 176.79 251.812 199.55 276.361 217.89 C 311.766 244.339 350.448 260.878 357.482 310.147 C 362.017 341.913 348.283 384.891 311.846 392.1 C 296.957 395.047 285.878 387.083 280.715 372.851 C 278.711 361.624 281.228 354.076 290.548 347.312 C 302.939 343.871 312.055 349.277 324.753 352.857 C 346.244 342.683 337.327 306.502 330.1 289.373 C 321.592 269.208 305.88 255.734 285.835 247.884 C 286.979 243.802 287.499 242.42 287.052 238.227 C 284.186 233.724 280.742 234.932 275.434 231.659 C 277.07 231.933 277.605 231.899 279.192 231.825 C 278.679 230.079 277.816 229.909 276.081 228.521 C 255.798 213.467 242.92 205.042 230.956 180.873 C 223.942 166.705 218.483 137.89 223.693 123.342 z"/>
      <path fill="rgba(212,171,81,1)" d="M 280.715 372.851 C 278.711 361.624 281.228 354.076 290.548 347.312 C 294.065 356.848 288.93 362.495 281.434 368.463 L 280.715 372.851 z"/>
      <path fill="url(#lG2)" d="M 297.494 170.247 C 298.033 163.124 291.07 151.495 292.439 149.571 C 300.115 138.779 284.282 135.294 288.191 125.217 C 301.5 138.266 315.965 150.081 331.41 160.516 C 385.808 197.537 419.789 209.313 455.443 269.67 C 449.927 276.868 443.301 284.696 438.113 291.781 C 404.602 227.136 354.275 209.883 297.494 170.247 z"/>
      <path fill="url(#lG1)" d="M 466.099 298.205 C 473.316 316.587 474.337 343.643 472.65 363.386 C 468.317 414.082 436.376 468.236 394.271 496.561 C 391.684 491.333 395.155 491.485 390.78 485.297 C 389.394 485.441 388.872 485.169 387.613 484.677 L 387.186 484.508 C 407.781 467.109 421.26 443.844 426.191 416.474 C 426.486 414.837 425.869 411.96 425.394 410.322 L 424.09 409.229 C 418.041 411.112 408.438 417.562 402.884 414.01 C 396.585 409.981 395.02 399.731 402.507 395.64 C 410.54 395.498 412.96 401.199 416.989 407.244 C 420.292 403.932 423.926 400.494 426.643 396.717 L 427.363 384.441 C 423.631 381.602 413.825 375.022 412.112 371.925 C 415.458 369.479 423.317 374.48 426.869 376.099 C 425.923 367.64 425.599 368.283 427.336 360.16 C 433.775 388.651 438.093 404.449 429.43 433.458 C 450.243 398.441 454.438 361.21 448.334 321.425 C 453.773 314.055 460.157 304.907 466.099 298.205 z"/>
      <path fill="rgba(212,171,81,1)" d="M 223.693 123.342 C 224.225 100.473 248.74 68.4216 266.981 56.3635 C 270.045 58.8729 276.762 64.7485 280.594 65.0727 C 267.12 88.9703 272.25 104.569 288.191 125.217 C 284.282 135.294 300.115 138.779 292.439 149.571 C 291.07 151.495 298.033 163.124 297.494 170.247 C 276.039 154.218 260.644 139.954 253.936 112.362 C 252.674 107.17 251.587 95.2473 249.528 91.4242 L 247.951 92.197 C 240.989 100.89 242.234 115.105 242.07 126.346 C 235.148 104.429 249.108 90.7362 246.722 83.2825 L 245.032 82.422 C 233.697 87.5172 228.789 118.065 223.693 123.342 z"/>
      <path fill="rgba(249,225,148,1)" d="M 266.981 56.3635 C 292.157 39.4637 312.002 32.7705 342.555 37.9709 C 352.715 39.7002 361.679 44.1294 371.014 48.2878 C 378.005 51.4018 389.223 60.6634 396.525 56.423 C 402.134 53.1659 401.738 43.783 408.202 43.2093 C 411.861 46.894 412.201 105.057 408.702 110.372 C 404.057 109.778 402.979 103.783 401.214 99.8242 C 384.482 62.3136 345.054 37.446 303.884 49.4361 C 295.081 51.9997 285.847 57.3978 280.594 65.0727 C 276.762 64.7485 270.045 58.8729 266.981 56.3635 z"/>
      <path fill="rgba(212,171,81,1)" d="M 246.271 358.096 C 237.264 338.872 225.108 319.28 202.012 315.056 C 192.631 313.34 190.36 317.11 182.575 320.392 L 180.811 318.606 C 178.901 304.545 204.417 309.309 212.143 312.271 C 220.174 315.351 228.41 327.382 236.755 326.616 C 240.513 332.189 239.814 332.009 240.585 338.464 C 241.309 344.528 247.14 352.149 246.271 358.096 z"/>
      <path fill="rgba(212,171,81,1)" d="M 165.583 338.059 C 160.885 333.662 156.662 327.146 156.327 320.515 L 157.557 319.499 C 160.818 320.904 162.432 324.145 164.424 327.178 C 163.017 332.194 164.032 332.659 165.583 338.059 z"/>
    </svg>
  </svg>
  <svg x="383" y="473" width="538" height="79" preserveAspectRatio="none">
    <svg version="1.1" xmlns="http://www.w3.org/2000/svg" width="538" height="79" viewBox="483.98 71.72 1085.88 159.45" preserveAspectRatio="none">
      <path fill="rgb(231,203,124)" d="M 490.784 76.3227 C 499.857 75.747 511.138 76.7537 520.476 77.0151 C 536.074 77.4516 557.4 75.0104 571.556 81.9181 C 594.922 93.3194 595.161 132.872 577.107 148.871 C 573.147 152.381 562.791 156.042 560.483 160.535 C 564.743 171.639 594.288 207.096 604.231 215.732 C 606.337 217.561 616.445 220.855 620.368 223.274 L 619.866 224.398 C 616.988 225.334 612.904 224.847 609.818 224.683 C 590.898 223.679 583.031 218.843 570.992 205.338 C 563.969 196.181 533.678 141.093 520.607 153.936 C 517.075 168.325 519.56 198.896 519.931 214.467 C 525.597 220.974 528.391 219.824 531.288 223.26 C 529.517 224.514 496.122 224.108 491.847 223.728 L 491.472 222.62 C 495.468 221.937 502.102 216.923 502.578 213.036 C 507.548 172.396 503.377 131.665 503.29 90.9198 C 503.271 81.8487 493.389 81.0763 490.296 78.265 L 490.784 76.3227 z M 520.767 148.411 C 533.149 148.861 547.284 150.165 558.285 144.835 C 572.578 135.044 575.578 112.134 566.331 97.6821 C 560.409 88.4283 542.062 81.9097 531.932 85.4043 C 528.481 85.582 524.743 85.3077 522.322 87.6929 C 520.286 96.9236 520.788 136.799 520.767 148.411 z"/>
      <path fill="rgb(231,203,124)" d="M 1228.1 72.5878 C 1231.02 73.5381 1232.7 79.4265 1233.95 82.3382 C 1245.66 109.576 1257.01 136.968 1268 164.506 C 1274.64 181.043 1277.78 194.564 1287.29 210.352 C 1295.33 223.703 1300.03 219.144 1303.27 223.57 C 1297.03 224.282 1268.99 224.37 1262.96 223.604 L 1262.59 222.563 L 1267.07 218.441 C 1270.67 208.717 1258.91 183.77 1252.65 175.31 C 1250.95 173.017 1236.84 173.868 1233.4 173.935 C 1208.07 174.407 1195.7 167.214 1188.35 199.33 C 1187.08 204.877 1182.14 214.013 1187.57 218.745 C 1189.36 220.305 1191.37 221.116 1192.52 223.267 C 1190.12 224.247 1164.55 224.435 1160.34 224.255 L 1159.56 223.117 C 1160.49 218.666 1167.66 216.467 1169.94 212.851 C 1172.62 208.602 1175.16 201.722 1177.1 196.952 L 1228.1 72.5878 z M 1230.25 165.321 C 1235.18 165.419 1242.43 165.985 1246.87 164.385 L 1248.17 162.934 C 1247.51 155.8 1231.37 111.833 1227.26 106.989 L 1225.84 106.607 C 1221.42 115.952 1205.05 154.309 1206.13 163.412 C 1209.32 166.76 1225.15 165.404 1230.25 165.321 z"/>
      <path fill="rgb(231,203,124)" d="M 1512.1 173.955 C 1507.39 173.849 1496.78 174.89 1493.73 174.576 C 1456.9 170.781 1454.97 176.887 1445.25 210.218 C 1442.25 220.488 1451.71 219.839 1454.25 223.594 C 1448.01 224.797 1427.77 224.174 1421.15 223.57 L 1420.67 222.432 C 1422.15 221.13 1429.67 214.811 1430.19 213.524 C 1445.23 176.511 1461.63 140.135 1475.72 102.731 C 1477.76 97.329 1485.28 73.535 1489.68 73.1848 C 1496.96 78.9886 1529.61 170.313 1536.41 185.969 C 1533.74 190.122 1536.08 189.583 1533.13 192.325 C 1530.88 194.936 1529.76 199.159 1529.72 202.53 C 1527.21 206.902 1528.85 209.259 1527.89 211.654 C 1530.3 214.161 1519.11 182.886 1512.1 173.955 z M 1489.5 164.248 L 1511.38 164.226 C 1506.52 155.414 1492.21 111.549 1486.48 109.824 C 1480.66 119.134 1466.14 151.288 1466.79 161.309 C 1467.07 161.814 1467.9 163.576 1468.27 163.652 C 1474.04 164.862 1483.4 164.328 1489.5 164.248 z"/>
      <path fill="rgb(237,210,133)" d="M 933.078 72.795 C 968.363 79.0647 1013.5 75.9248 1049.53 74.3475 C 1058.74 73.944 1056.97 93.2005 1054.62 97.4642 C 1051.33 95.4164 1051.75 91.1997 1049.28 88.5923 C 1044.42 83.4464 1028.56 83.7163 1021.7 83.6011 C 1016.92 83.521 1007.08 83.0678 1003.52 86.7283 C 998.305 92.0874 1001.8 187.189 1001.91 201.75 C 1001.85 215.268 1003.33 214.919 1013.49 223.436 L 1012.82 224.199 C 1004.24 224.104 974.898 224.804 968.817 223.521 C 971.046 221.027 985.554 220.121 984.739 208.992 C 983.74 195.338 989.794 91.4947 983.431 85.1729 C 979.473 83.0009 959.851 83.8661 954.335 83.8121 C 948.525 84.0842 940.098 86.5817 937.622 92.3757 C 936.326 95.408 937.52 96.9048 934.864 99.6511 C 934.008 98.5517 933.176 75.9445 933.078 72.795 z"/>
      <path fill="rgb(231,203,124)" d="M 777.213 177.182 C 773.831 183.949 757.502 224.108 754.401 226.198 C 748.496 222.906 706.972 114.595 700.009 100.56 C 691.903 84.2201 697.141 89.5724 680.043 78.2669 L 679.909 76.8792 C 686.22 75.1584 718.369 76.2639 724.977 77.4519 L 725.151 78.5853 C 722.2 80.1614 713.901 84.0175 715.156 87.8709 C 720.57 104.495 747.33 184.078 756.924 193.322 L 758.145 193.264 C 762.401 186.858 764.036 178.938 767.902 171.874 C 768.072 175.205 767.491 175.991 769.472 177.971 L 777.213 177.182 z"/>
      <path fill="rgb(231,203,124)" d="M 625.149 76.4075 C 630.274 75.7324 666.048 75.1648 669.559 77.5476 C 668.708 78.8228 668.623 79.2731 667.025 79.7032 C 656.4 82.5634 655.638 90.8239 655.822 100.328 C 656.008 109.916 655.875 119.813 655.868 129.485 L 655.909 214.408 C 660.138 219.158 662.236 220.713 668.26 222.749 L 667.581 224.411 C 663.282 225.076 631.396 224.928 626.993 223.786 L 626.641 222.638 C 629.136 222.119 631.542 221.268 633.669 219.833 C 636.501 217.922 637.918 214.732 638.574 211.485 C 640.671 201.098 640.05 94.487 637.16 86.43 C 635.048 80.5391 628.36 81.3712 625.265 76.5903 L 625.149 76.4075 z"/>
      <path fill="rgb(193,153,66)" d="M 1327.12 105.263 C 1327.3 73.1 1314.85 83.6195 1311.4 77.1313 C 1313.89 75.4909 1351.12 75.4616 1355.51 76.3857 C 1356.59 76.6111 1357.62 77.0351 1358.54 77.636 L 1358.37 77.4203 C 1354.52 82.4304 1344.99 79.6352 1344.21 87.5641 C 1341.43 115.774 1343.45 145.575 1342.84 174.084 C 1342.68 181.976 1341.49 202.366 1342.22 208.464 C 1342.32 209.274 1342.5 210.074 1342.74 210.852 L 1338.49 218.086 C 1337.51 218.386 1334.57 218.323 1333.39 218.334 C 1330.52 216.71 1330.16 215.648 1328.74 212.631 L 1327.16 212.325 C 1326.49 205.752 1327.01 185.721 1327 178.388 L 1327.12 105.263 z"/>
      <path fill="rgb(231,203,124)" d="M 1327.12 105.263 C 1327.44 102.98 1327.64 98.5907 1328.88 97.152 C 1334.4 104.445 1326.7 198.974 1331.37 214.592 C 1332.16 217.22 1336.01 217.668 1338.49 218.086 C 1337.51 218.386 1334.57 218.323 1333.39 218.334 C 1330.52 216.71 1330.16 215.648 1328.74 212.631 L 1327.16 212.325 C 1326.49 205.752 1327.01 185.721 1327 178.388 L 1327.12 105.263 z"/>
      <path fill="rgb(231,203,124)" d="M 847.788 142.039 C 848.03 143.78 847.883 145.44 848.911 146.375 C 850.063 147.422 856.006 150.941 857.346 151.095 C 855.392 156.103 853.742 160.325 851.329 165.173 C 858.873 165.156 890.656 164.663 896.612 165.894 L 897.12 163.493 C 896.805 162.739 896.544 160.184 896.419 159.232 C 895.966 155.403 895.815 154.379 897.36 150.708 L 897.662 153.891 C 899.674 152.983 900.886 152.301 903.101 152.165 L 903.156 152.956 L 899.615 155.599 L 899.656 157.527 C 902.591 158.67 901.48 158.587 904.575 157.832 C 904.734 157.361 903.898 146.768 903.697 145.886 L 904.966 146.211 C 906.909 150.525 910.435 158.649 909.25 163.099 C 906.951 166.435 905.82 166.667 901.194 167.527 C 900.793 167.601 900.39 167.672 899.987 167.738 L 897.713 170.015 C 898.935 170.982 900.62 172.065 901.126 173.47 C 894.415 174.358 876.088 173.966 868.523 173.99 C 863.713 174.17 853.781 171.224 850.457 173.895 C 841.938 180.74 836.471 199.337 833.379 209.735 C 832.064 214.158 837.006 220.208 839.603 223.949 C 833.597 223.962 804.24 224.667 801.466 222.67 C 803.029 221.322 807.73 221.075 810.199 220.711 C 821.442 213.98 840.812 157.842 847.788 142.039 z"/>
      <path fill="rgb(237,210,133)" d="M 896.419 159.232 C 895.966 155.403 895.815 154.379 897.36 150.708 L 897.662 153.891 C 899.674 152.983 900.886 152.301 903.101 152.165 L 903.156 152.956 L 899.615 155.599 L 899.656 157.527 C 902.591 158.67 901.48 158.587 904.575 157.832 C 904.734 157.361 903.898 146.768 903.697 145.886 L 904.966 146.211 C 906.909 150.525 910.435 158.649 909.25 163.099 C 906.951 166.435 905.82 166.667 901.194 167.527 C 900.793 167.601 900.39 167.672 899.987 167.738 L 897.713 170.015 C 898.935 170.982 900.62 172.065 901.126 173.47 C 894.415 174.358 876.088 173.966 868.523 173.99 C 862.628 168.959 857.817 173.016 852.045 168.71 C 856.63 164.101 890.468 170.428 896.612 165.894 L 897.12 163.493 C 896.805 162.739 896.544 160.184 896.419 159.232 z"/>
      <path fill="rgb(237,210,133)" d="M 1123.17 171.177 C 1122.46 173.443 1131.83 158.367 1132.46 157.07 C 1137.31 161.828 1143.07 167.71 1145.64 174.14 C 1153.07 192.377 1144.14 216.306 1125.36 223.758 C 1106.66 231.175 1078.21 230.269 1067.84 209.977 C 1066.69 207.712 1068.11 190.184 1071.07 187.579 L 1072.45 187.733 C 1075.24 191.818 1074.48 197.953 1075.65 202.695 C 1076.3 205.319 1078.27 207.076 1080.12 208.977 C 1095.34 224.615 1126.67 223.71 1133.51 200.2 C 1134.31 197.45 1134.68 194.612 1135.2 191.758 C 1134.73 189.296 1133.91 187.562 1132.93 185.281 C 1132.36 182.641 1129.15 178.035 1127.56 175.517 C 1126.96 175.126 1123.88 171.901 1123.17 171.177 z"/>
      <path fill="rgb(243,219,140)" d="M 1123.17 171.177 C 1122.46 173.443 1131.83 158.367 1132.46 157.07 C 1137.31 161.828 1143.07 167.71 1145.64 174.14 C 1145.62 175.692 1145.73 184.452 1145.2 185.078 L 1144.11 178.936 C 1141.72 182.215 1140.95 184.947 1137.67 187.803 C 1137.15 188.258 1138.21 198.452 1136.43 199.263 C 1136.04 195.477 1137.04 193.78 1135.2 191.758 C 1134.73 189.296 1133.91 187.562 1132.93 185.281 C 1132.36 182.641 1129.15 178.035 1127.56 175.517 C 1126.96 175.126 1123.88 171.901 1123.17 171.177 z"/>
      <path fill="rgb(231,203,124)" d="M 1127.56 175.517 L 1129.41 170.812 L 1130.98 170.205 C 1135.59 173.558 1131.96 176.617 1139.37 181.404 L 1139.48 183.065 C 1137.45 183.772 1134.96 184.712 1132.93 185.281 C 1132.36 182.641 1129.15 178.035 1127.56 175.517 z"/>
      <path fill="rgb(243,219,140)" d="M 1098.88 149.58 C 1090.24 146.084 1074.45 129.021 1072.73 119.487 C 1070.92 109.534 1071.47 99.986 1076.84 91.222 C 1088.41 72.3472 1111.87 71.7239 1131.44 74.5438 C 1134.62 75.0102 1139.58 76.1825 1139.63 80.062 C 1139.69 84.3716 1140.98 98.3029 1138.82 101.28 C 1136.98 100.194 1136.68 95.1195 1133.51 90.7627 C 1119.9 72.0557 1083.15 80.4582 1084.65 105.684 C 1085.39 118.081 1100.04 128.432 1109.97 136.567 C 1104.85 143.383 1101.48 137.683 1098.88 149.58 z"/>
      <path fill="rgb(231,203,124)" d="M 857.667 118.637 C 859.555 112.635 874.561 75.2412 877.919 73.4287 C 881.264 75.8202 903.028 134.717 908.691 144.012 L 904.966 146.211 L 903.697 145.886 C 903.898 146.768 904.734 157.361 904.575 157.832 C 901.48 158.587 902.591 158.67 899.656 157.527 L 899.615 155.599 L 903.156 152.956 L 903.101 152.165 C 900.886 152.301 899.674 152.983 897.662 153.891 L 897.36 150.708 C 895.815 154.379 895.966 155.403 896.419 159.232 C 890.786 149.691 879.85 110.82 875.09 106.334 C 872.556 108.774 867.173 124.117 865.694 128.135 C 866.046 115.374 865.415 123.933 857.667 118.637 z"/>
      <path fill="rgb(237,210,133)" d="M 767.902 171.874 C 773.773 157.78 801.694 94.9911 799.884 85.3716 C 799.321 82.3795 792.534 79.0307 793.324 77.313 C 800.875 75.7342 827.38 75.926 836.55 76.3634 C 824.81 80.4526 817.61 81.3216 812.61 92.974 C 800.641 120.868 789.064 149.269 777.213 177.182 L 769.472 177.971 C 767.491 175.991 768.072 175.205 767.902 171.874 z"/>
      <path fill="rgb(231,203,124)" d="M 904.966 146.211 L 908.691 144.012 L 914.209 156.999 C 921.714 175.792 928.221 195.283 937.116 213.446 C 939.081 217.458 948.74 220.891 952.121 222.96 C 950.294 224.304 912.482 224.378 910.731 223.414 C 911.441 222.755 912.92 221.51 913.475 220.866 C 921.96 211.02 907.627 187.556 904.555 178.024 C 903.958 177.445 901.759 174.334 901.126 173.47 C 900.62 172.065 898.935 170.982 897.713 170.015 L 899.987 167.738 C 900.39 167.672 900.793 167.601 901.194 167.527 C 905.82 166.667 906.951 166.435 909.25 163.099 C 910.435 158.649 906.909 150.525 904.966 146.211 z"/>
      <path fill="rgb(237,210,133)" d="M 1342.74 210.852 C 1352.14 223.289 1386.43 217.612 1398.06 209.441 C 1404.74 204.753 1407.56 192.288 1412.58 190.417 C 1414.36 195.479 1403.63 218.815 1400.39 224.78 C 1372.27 224.825 1343.64 223.86 1315.03 223.955 C 1319.83 220.907 1324.31 217.372 1327.16 212.325 L 1328.74 212.631 C 1330.16 215.648 1330.52 216.71 1333.39 218.334 C 1334.57 218.323 1337.51 218.386 1338.49 218.086 L 1342.74 210.852 z"/>
      <path fill="rgb(237,210,133)" d="M 1533.13 192.325 C 1536.08 189.583 1533.74 190.122 1536.41 185.969 C 1542.35 201.996 1545.28 217.161 1563.55 222.511 C 1560.94 224.807 1523.16 224.528 1520.86 223.074 C 1524.86 218.253 1527.04 218.602 1527.89 211.654 C 1528.85 209.259 1527.21 206.902 1529.72 202.53 C 1529.76 199.159 1530.88 194.936 1533.13 192.325 z"/>
      <path fill="rgb(193,153,66)" d="M 1533.13 192.325 C 1536.08 197.376 1544.78 211.563 1542.47 217.233 C 1535.89 217.794 1531.9 207.796 1529.72 202.53 C 1529.76 199.159 1530.88 194.936 1533.13 192.325 z"/>
      <path fill="rgb(237,210,133)" d="M 1109.97 136.567 C 1115.37 141.896 1130.32 151.855 1132.46 157.07 C 1131.83 158.367 1122.46 173.443 1123.17 171.177 C 1119.47 166.161 1101.88 154.033 1098.88 149.58 C 1101.48 137.683 1104.85 143.383 1109.97 136.567 z"/>
      <path fill="rgb(243,219,140)" d="M 857.667 118.637 C 865.415 123.933 866.046 115.374 865.694 128.135 C 863.903 134.1 859.885 145.432 857.346 151.095 C 856.006 150.941 850.063 147.422 848.911 146.375 C 847.883 145.44 848.03 143.78 847.788 142.039 C 850.332 137.509 854.981 124.423 857.667 118.637 z"/>
    </svg>
  </svg>
</svg>
